<svg width="322" height="53" viewBox="0 0 322 53" fill="none" xmlns="http://www.w3.org/2000/svg">
<path d="M0.299317 3.17564H7.81087C10.9699 3.17564 15.6734 3.38624 19.1835 5.77309C21.9214 7.59833 24.3082 11.1786 24.3082 16.1629C24.3082 23.3235 19.6047 28.5886 12.5144 29.08L27.3971 50H21.0789L6.82805 29.5012H5.49422V50H0.299317V3.17564ZM5.49422 8.08974V24.8679H8.79369C15.2522 24.8679 19.1133 21.779 19.1133 16.3033C19.1133 13.7059 18.3411 11.1084 15.3926 9.42357C13.2866 8.23014 10.8997 8.08974 8.65329 8.08974H5.49422ZM72.4631 50L66.9874 36.8021H47.0502L41.4341 50H35.6775L57.2294 0.92919L78.2196 50H72.4631ZM49.086 31.888H64.9515L57.089 13.1442L49.086 31.888ZM95.6345 50H90.4396V1.21L126.944 39.4698V3.17564H132.139V52.106L95.6345 13.8463V50ZM154.999 3.17564V23.2533L174.936 3.17564H181.956L160.053 25.0083L182.658 50H175.497L156.332 28.5184L154.999 29.8522V50H149.804V3.17564H154.999ZM195.319 3.17564H200.514V50H195.319V3.17564ZM223.407 50H218.212V1.21L254.716 39.4698V3.17564H259.911V52.106L223.407 13.8463V50ZM301.725 31.3966V26.4825H321.241V27.6057C321.241 32.8006 319.697 38.4168 316.748 42.4182C315.344 44.3137 310.079 50.8424 299.338 50.8424C285.438 50.8424 275.049 40.242 275.049 26.6229C275.049 13.0038 285.509 2.40342 299.479 2.40342C303.972 2.40342 309.237 3.52664 313.8 7.03672C315.906 8.65135 317.871 10.7574 319.205 12.5826L315.344 16.0927C314.01 14.1973 312.466 12.5124 310.921 11.2488C308.675 9.42357 305.165 7.31752 299.549 7.31752C288.246 7.31752 280.384 15.8119 280.384 26.6931C280.384 39.4698 290.563 45.9283 299.408 45.9283C305.656 45.9283 311.062 42.7693 313.73 38.0658C314.572 36.5915 315.485 34.3451 315.625 31.3966H301.725Z" fill="#3A3A3A"/>
</svg>
